<?xml version="1.0" standalone="no"?>
<!DOCTYPE svg PUBLIC "-//W3C//DTD SVG 20010904//EN"
 "http://www.w3.org/TR/2001/REC-SVG-20010904/DTD/svg10.dtd">
<svg version="1.0" xmlns="http://www.w3.org/2000/svg"
 width="300.000000pt" height="250.000000pt" viewBox="0 0 300.000000 250.000000"
 preserveAspectRatio="xMidYMid meet">
<metadata>
Created by potrace 1.10, written by Peter Selinger 2001-2011
</metadata>
<g transform="translate(0.000000,250.000000) scale(0.100000,-0.100000)"
fill="#000000" stroke="none">
<path d="M1403 1830 c-58 -11 -150 -43 -177 -63 -18 -13 -18 -15 -2 -40 l17
-26 32 19 c111 66 344 65 456 -1 18 -11 34 -19 35 -17 1 2 9 15 19 29 l16 27
-57 25 c-31 14 -75 30 -97 36 -58 16 -182 21 -242 11z"/>
<path d="M1126 1703 c-113 -88 -215 -284 -216 -415 0 -25 3 -28 35 -28 33 0
35 2 35 33 1 109 59 228 160 328 72 72 75 77 62 97 -8 12 -18 22 -22 22 -4 0
-28 -16 -54 -37z"/>
<path d="M1390 1730 c-42 -11 -130 -47 -130 -54 0 -3 12 -25 27 -50 23 -39 31
-44 54 -39 33 6 50 -24 23 -44 -20 -14 -25 -2 64 -150 l74 -122 107 177 c59
97 115 189 124 203 l18 27 -68 27 c-54 22 -88 28 -163 31 -52 2 -111 -1 -130
-6z m250 -35 c74 -26 74 -27 19 -115 -27 -44 -49 -82 -49 -86 0 -3 -13 -24
-28 -47 -16 -23 -40 -59 -53 -79 -13 -21 -26 -38 -29 -38 -3 1 -31 43 -63 95
-51 83 -56 97 -45 114 10 17 9 25 -9 48 -11 15 -28 27 -37 27 -21 -2 -53 43
-40 56 39 39 250 54 334 25z"/>
<path d="M1492 1671 c-12 -10 -22 -25 -22 -33 0 -23 27 -41 47 -32 16 7 15 8
-4 11 -15 3 -23 11 -23 25 0 16 5 19 25 16 21 -4 23 -3 14 13 -12 23 -11 23
-37 0z"/>
<path d="M1563 1653 c-18 -7 -16 -42 3 -50 8 -3 23 1 31 10 13 13 14 19 3 31
-13 17 -17 18 -37 9z"/>
<path d="M1540 1567 c0 -19 34 -37 51 -26 11 7 9 9 -8 9 -14 0 -23 6 -23 15 0
8 -4 15 -10 15 -5 0 -10 -6 -10 -13z"/>
<path d="M1487 1515 c-22 -16 -16 -50 10 -59 18 -7 53 20 53 40 0 7 -9 18 -19
24 -24 12 -22 12 -44 -5z m41 -22 c-5 -26 -38 -29 -38 -4 0 15 6 21 21 21 14
0 19 -5 17 -17z"/>
<path d="M1802 1714 c-11 -23 -8 -29 47 -80 97 -90 156 -200 168 -315 l6 -59
33 0 c40 0 41 9 20 110 -19 87 -53 162 -109 236 -41 54 -129 134 -147 134 -4
0 -12 -11 -18 -26z"/>
<path d="M1155 1596 c-83 -84 -144 -215 -145 -308 l0 -28 234 0 234 0 -81 133
c-45 73 -100 163 -122 199 -22 37 -44 68 -49 68 -4 0 -36 -29 -71 -64z m125
-58 c29 -46 64 -102 77 -125 l23 -43 -20 -20 c-11 -11 -20 -29 -20 -40 0 -19
-7 -20 -151 -20 l-152 0 7 47 c10 76 73 199 124 244 25 21 48 39 52 39 5 0 32
-37 60 -82z m128 -221 c4 -20 -25 -34 -40 -19 -15 15 -1 44 19 40 10 -2 19
-11 21 -21z"/>
<path d="M1150 1525 c-19 -23 -8 -50 20 -50 19 0 26 6 28 24 5 35 -26 53 -48
26z"/>
<path d="M1203 1427 c-50 -26 -59 -48 -28 -77 20 -19 26 -20 44 -9 26 17 31
38 13 67 -13 19 -12 22 2 22 9 0 16 5 16 10 0 6 -1 10 -2 9 -2 0 -22 -10 -45
-22z m23 -38 c3 -6 -1 -18 -10 -27 -15 -15 -17 -15 -32 0 -19 19 -11 38 16 38
10 0 22 -5 26 -11z"/>
<path d="M1751 1633 c-8 -18 -9 -29 -1 -37 15 -15 12 -46 -6 -53 -8 -3 -20 -1
-26 5 -8 8 -30 -22 -79 -104 -38 -63 -77 -128 -89 -143 -11 -16 -20 -31 -20
-34 0 -3 104 -6 230 -6 l230 -1 0 28 c0 49 -36 160 -71 218 -31 51 -130 154
-148 154 -4 0 -13 -12 -20 -27z m75 -51 c69 -59 134 -192 134 -272 0 -31 -57
-27 -82 5 -25 32 -42 32 -74 0 -25 -25 -31 -26 -124 -24 -89 1 -98 3 -92 19
18 45 128 210 141 210 25 0 51 32 51 62 0 35 7 35 46 0z m37 -274 c6 -18 -3
-38 -17 -38 -18 0 -35 21 -29 36 6 17 40 18 46 2z"/>
<path d="M1854 1425 c-7 -17 12 -45 31 -45 19 0 36 25 29 44 -8 20 -53 21 -60
1z"/>
<path d="M910 1218 c1 -44 28 -153 53 -208 32 -73 105 -168 163 -213 26 -21
50 -37 54 -37 4 0 12 11 18 26 11 23 8 29 -47 80 -97 90 -156 200 -168 315
l-6 59 -33 0 c-29 0 -34 -4 -34 -22z"/>
<path d="M1010 1213 c1 -114 92 -283 190 -353 l29 -21 17 26 c13 20 14 29 5
38 -26 26 -2 64 32 51 9 -3 39 38 87 118 40 68 79 130 87 139 7 8 13 19 13 23
0 5 -72 7 -161 4 -126 -3 -162 -7 -169 -18 -6 -10 -5 -20 4 -29 16 -15 36 -7
36 14 0 12 20 14 111 10 62 -2 114 -7 117 -10 15 -15 -115 -225 -140 -225 -26
0 -48 -28 -48 -61 0 -39 -12 -37 -57 10 -48 50 -83 107 -61 98 15 -5 78 46 78
63 0 4 -12 19 -27 34 -26 27 -50 28 -81 3 -17 -14 -23 -6 -29 41 l-5 40 46 7
c61 10 49 25 -20 25 -52 0 -54 -1 -54 -27z m139 -117 c5 -27 -26 -48 -50 -35
-19 10 -25 39 -12 53 14 14 58 1 62 -18z"/>
<path d="M1558 1180 c21 -31 75 -121 122 -198 47 -78 89 -141 93 -142 16 0
124 115 152 164 30 52 65 163 65 209 l0 27 -234 -1 -234 -1 36 -58z m399 26
c4 -3 0 -24 -7 -46 -9 -28 -19 -40 -32 -40 -11 0 -16 -5 -13 -11 4 -6 13 -8
21 -5 18 7 18 6 -6 -54 -23 -58 -28 -66 -88 -127 -45 -46 -58 -49 -76 -18 -6
10 -28 46 -48 78 -43 68 -45 74 -20 80 13 4 11 5 -5 6 -27 1 -30 26 -5 40 16
10 16 10 0 11 -9 0 -20 -5 -23 -10 -12 -19 -64 40 -80 89 l-7 23 192 -5 c105
-3 194 -8 197 -11z"/>
<path d="M1594 1199 c-3 -6 0 -17 7 -25 18 -17 44 -2 36 20 -7 18 -33 21 -43
5z"/>
<path d="M1780 1120 c0 -13 7 -20 20 -20 13 0 20 7 20 20 0 13 -7 20 -20 20
-13 0 -20 -7 -20 -20z"/>
<path d="M1807 1024 c-13 -13 -7 -52 9 -58 22 -9 46 13 42 38 -3 21 -37 34
-51 20z"/>
<path d="M2020 1207 c0 -49 -27 -144 -58 -201 -14 -28 -61 -85 -103 -127 -75
-76 -76 -77 -59 -100 18 -22 18 -22 45 -5 119 78 221 252 240 409 l7 57 -36 0
c-34 0 -36 -2 -36 -33z"/>
<path d="M1490 1223 c0 -5 -54 -97 -119 -204 l-119 -194 46 -21 c75 -34 147
-47 230 -42 71 5 184 36 205 57 4 4 -4 28 -19 54 -24 40 -32 45 -55 40 -33 -6
-47 21 -24 47 14 15 9 28 -59 139 -79 129 -86 140 -86 124z m68 -139 c47 -76
53 -91 47 -123 -5 -30 -2 -40 18 -56 13 -11 30 -21 38 -23 15 -3 39 -30 39
-44 0 -24 -156 -60 -227 -52 -104 12 -199 46 -176 63 4 3 14 17 22 31 110 192
171 289 181 290 3 0 29 -39 58 -86z"/>
<path d="M1475 1021 c-8 -15 3 -31 21 -31 9 0 14 7 12 17 -4 20 -24 28 -33 14z"/>
<path d="M1550 1000 c0 -5 5 -10 10 -10 6 0 10 -9 10 -20 0 -11 -7 -20 -16
-20 -8 0 -12 -5 -8 -11 4 -7 13 -4 26 9 17 17 18 22 7 41 -15 22 -29 28 -29
11z"/>
<path d="M1382 925 c3 -14 -1 -30 -8 -36 -19 -16 3 -58 34 -66 25 -6 52 16 52
41 0 5 -6 2 -13 -8 -18 -24 -51 -17 -55 12 -4 27 23 40 50 23 18 -11 19 -10
14 19 -5 35 -16 53 -16 27 0 -10 -8 -17 -20 -17 -11 0 -20 7 -20 15 0 8 -5 15
-11 15 -7 0 -9 -10 -7 -25z"/>
<path d="M1470 860 c0 -15 5 -20 18 -18 9 2 17 10 17 18 0 8 -8 16 -17 18 -13
2 -18 -3 -18 -18z"/>
<path d="M1218 771 l-16 -29 56 -25 c109 -49 215 -64 320 -48 74 12 165 41
196 64 18 13 18 15 2 40 l-17 26 -32 -19 c-111 -66 -344 -65 -455 1 -18 10
-34 19 -35 19 -1 0 -9 -13 -19 -29z"/>
</g>
</svg>
